<svg width="27" height="33" viewBox="0 0 27 33" fill="none" xmlns="http://www.w3.org/2000/svg">
<path d="M23.5789 10.7257L10.7424 1.3129C9.73975 0.578725 8.55343 0.136521 7.31488 0.035302C6.07634 -0.0659173 4.83395 0.177802 3.72544 0.739444C2.61693 1.30109 1.68559 2.15871 1.03466 3.21726C0.383723 4.27581 0.038622 5.49393 0.0376058 6.73661V25.5715C0.0356725 26.8154 0.378969 28.0355 1.02928 29.0958C1.6796 30.1562 2.61141 31.0153 3.72101 31.5775C4.83061 32.1396 6.07445 32.3829 7.31409 32.2801C8.55372 32.1773 9.74052 31.7325 10.7424 30.9953L23.5789 21.5825C24.4307 20.9574 25.1233 20.1406 25.6007 19.1981C26.0781 18.2556 26.3268 17.2139 26.3268 16.1574C26.3268 15.1009 26.0781 14.0593 25.6007 13.1168C25.1233 12.1743 24.4307 11.3575 23.5789 10.7324V10.7257Z" fill="white"/>
</svg>
